<svg width="84" height="78" viewBox="0 0 84 78" fill="none" xmlns="http://www.w3.org/2000/svg">
<rect width="84" height="77.8286" fill="#1E1D21"/>
<g clip-path="url(#clip0_925_26)">
<path d="M37.0061 38.8589C37.0061 36.0977 39.2488 33.8549 42.01 33.8549C44.7711 33.8549 47.0139 36.0977 47.0139 38.8589C47.0139 41.62 44.7711 43.8628 42.01 43.8628C39.2488 43.8628 37.0061 41.62 37.0061 38.8589ZM70 38.8589C70 42.2978 65.943 45.7766 59.4041 47.9397C59.0651 48.0493 58.7163 48.159 58.3574 48.2686C58.487 48.777 58.5967 49.2754 58.6963 49.7638C59.3044 52.8539 59.4041 55.7246 58.9754 58.0571C58.5169 60.5392 57.4802 62.3035 55.9851 63.1707C55.2375 63.6093 54.3503 63.8286 53.3635 63.8286C50.6522 63.8286 47.2132 62.1938 43.6248 59.1038C43.1164 58.6652 42.618 58.2067 42.1096 57.7182C41.7209 58.097 41.3321 58.4559 40.9434 58.7948C38.571 60.8681 36.1289 62.3832 33.896 63.1707C32.7298 63.5894 31.6333 63.7987 30.6565 63.7987C29.6397 63.7987 28.7426 63.5794 27.985 63.1408C25.1242 61.4861 24.1274 56.7214 25.3336 50.3918C25.4532 49.7439 25.6027 49.076 25.7722 48.3982C25.2439 48.2487 24.7355 48.0892 24.2471 47.9197C21.2666 46.903 18.7348 45.5474 16.9306 44.0023C15.0167 42.3676 14 40.5833 14 38.8589C14 35.5495 17.6283 32.3099 23.7188 30.1967C24.3866 29.9674 25.0844 29.7481 25.8021 29.5388C25.6426 28.9108 25.503 28.2928 25.3834 27.6848C24.7953 24.6744 24.6857 21.9133 25.0644 19.6905C25.4831 17.2683 26.4699 15.5438 27.9352 14.6965C30.9057 12.9721 35.9594 14.7464 41.1029 19.3217C41.4119 19.6008 41.7209 19.8898 42.0399 20.1889C42.5084 19.7403 42.9769 19.3117 43.4354 18.903C45.748 16.8895 48.0904 15.4142 50.2036 14.6367C52.5062 13.7894 54.4998 13.7894 55.9551 14.6267C58.9356 16.3412 59.9224 21.6043 58.5269 28.3427C58.4471 28.7513 58.3475 29.16 58.2478 29.5787C58.8658 29.7581 59.4639 29.9475 60.042 30.1469C62.9427 31.1437 65.3848 32.4395 67.1193 33.8749C69.0032 35.4498 70 37.1743 70 38.8589ZM43.7145 21.8934C45.3094 23.6079 46.9042 25.6015 48.4393 27.7944C51.0808 28.0436 53.6027 28.4423 55.9352 28.9806C56.0249 28.6018 56.1146 28.233 56.1844 27.8642C57.4902 21.5146 56.3638 17.6271 54.759 16.7001C53.9416 16.2316 52.6159 16.2914 51.021 16.8795C49.1769 17.5573 47.0936 18.8831 45.0004 20.7072C44.5717 21.076 44.1431 21.4747 43.7145 21.8934ZM28.7326 46.6737C30.3275 47.0226 32.052 47.3017 33.8861 47.5011C33.288 46.5641 32.6999 45.6072 32.1317 44.6303C31.5735 43.6734 31.0452 42.7065 30.5468 41.7396C29.8391 43.4142 29.2211 45.0789 28.7326 46.6737ZM32.1317 33.207C32.6899 32.2501 33.2581 31.3031 33.8462 30.3861C32.0719 30.6054 30.3674 30.9044 28.7626 31.2533C29.251 32.8282 29.8491 34.453 30.5468 36.1077C31.0452 35.1408 31.5735 34.1739 32.1317 33.207ZM34.2051 43.4341C35.0723 44.9293 35.9893 46.3847 36.9462 47.7702C38.571 47.8699 40.2656 47.9297 42.01 47.9297C43.7643 47.9297 45.4788 47.8699 47.1335 47.7503C48.0406 46.3847 48.9377 44.9393 49.8248 43.4142C50.702 41.8991 51.5094 40.374 52.2371 38.8788C51.5094 37.4135 50.712 35.9183 49.8248 34.3932C48.9576 32.888 48.0506 31.4527 47.1235 30.0771C45.4589 29.9475 43.7444 29.8877 42.01 29.8877C40.2955 29.8877 38.581 29.9575 36.9064 30.087C35.9694 31.4626 35.0523 32.908 34.1951 34.4032C33.3378 35.8884 32.5404 37.4035 31.8127 38.9187C32.5404 40.4238 33.3378 41.939 34.2051 43.4341ZM50.1837 47.4612C52.0278 47.2419 53.7821 46.9429 55.4069 46.5741C54.9085 45.0091 54.2805 43.3544 53.523 41.6399C53.0146 42.6267 52.4664 43.6235 51.8982 44.6104C51.33 45.5872 50.7618 46.5442 50.1837 47.4612ZM55.2873 31.2832C53.6725 30.9144 51.958 30.6154 50.1737 30.3861C50.7519 31.2932 51.32 32.2302 51.8783 33.1871C52.4464 34.1739 52.9847 35.1508 53.4931 36.1077C54.2008 34.453 54.8088 32.8282 55.2873 31.2832ZM38.7106 27.5751C39.7971 27.5253 40.8936 27.4954 42 27.4954C43.1264 27.4954 44.2328 27.5253 45.3393 27.5751C44.2528 26.1298 43.1463 24.7941 42.0399 23.5979C40.9135 24.804 39.7971 26.1397 38.7106 27.5751ZM27.7358 27.2262C27.8455 27.7944 27.9751 28.3626 28.1246 28.9507C30.4471 28.4224 32.969 28.0336 35.6105 27.7844C37.1456 25.6214 38.7504 23.6378 40.3752 21.8834C40.0961 21.6143 39.817 21.3551 39.5379 21.1159C34.6736 16.8097 30.7462 15.8428 29.1413 16.7699C28.324 17.2383 27.7159 18.4245 27.4268 20.0992C27.0979 22.0329 27.1976 24.505 27.7358 27.2262ZM29.1712 38.9286C28.0648 36.5164 27.1378 34.134 26.44 31.8514C25.7722 32.0408 25.1342 32.2401 24.5162 32.4594C18.9142 34.4131 16.4023 37.0846 16.4023 38.8688C16.4023 40.7229 19.1036 43.6435 25.0246 45.667C25.4731 45.8165 25.9316 45.966 26.4101 46.1056C27.1178 43.783 28.0449 41.3708 29.1712 38.9286ZM40.435 56.0137C38.7903 54.2593 37.1755 52.2558 35.6305 50.0728C32.8993 49.8535 30.3674 49.4847 28.0947 48.9763C27.9352 49.6143 27.8056 50.2323 27.686 50.8304C26.5796 56.6616 27.6461 60.1704 29.1812 61.0575C30.786 61.9845 34.6636 61.1073 39.3784 56.9806C39.7173 56.6816 40.0762 56.3526 40.435 56.0137ZM45.3891 50.2423C44.2827 50.2921 43.1463 50.322 42.01 50.322C40.8936 50.322 39.807 50.3021 38.7405 50.2622C39.8469 51.7175 40.9733 53.0632 42.1096 54.2893C43.1962 53.0831 44.3026 51.7375 45.3891 50.2423ZM56.3638 50.2323C56.2741 49.7837 56.1744 49.3352 56.0548 48.8667C53.7423 49.405 51.1905 49.7937 48.4792 50.0329C46.9341 52.2757 45.3492 54.2793 43.7843 55.9938C44.2528 56.4523 44.7312 56.8809 45.1897 57.2796C49.6853 61.1472 53.2538 61.9845 54.7989 61.0874C56.4037 60.1704 57.5799 56.3726 56.3638 50.2323ZM67.6177 38.8589C67.6177 37.9119 66.9 36.7955 65.5942 35.709C64.089 34.453 61.896 33.3067 59.2745 32.3996C58.7362 32.2202 58.178 32.0408 57.6098 31.8713C56.922 34.0942 56.005 36.4566 54.8786 38.8688C56.0548 41.3508 57.0117 43.7332 57.7095 45.956C58.0285 45.8564 58.3475 45.7567 58.6565 45.657C64.8067 43.6235 67.6177 40.7029 67.6177 38.8589Z" fill="#61DAFB"/>
</g>
<defs>
<clipPath id="clip0_925_26">
<rect width="56" height="49.8286" fill="white" transform="translate(14 14)"/>
</clipPath>
</defs>
</svg>
